<?xml version="1.0" standalone="no"?>
<!DOCTYPE svg PUBLIC "-//W3C//DTD SVG 20010904//EN"
 "http://www.w3.org/TR/2001/REC-SVG-20010904/DTD/svg10.dtd">
<svg version="1.0" xmlns="http://www.w3.org/2000/svg"
 width="293.000000pt" height="293.000000pt" viewBox="0 0 293.000000 293.000000"
 preserveAspectRatio="xMidYMid meet">
<metadata>
Created by potrace 1.14, written by Peter Selinger 2001-2017
</metadata>
<g transform="translate(0.000000,293.000000) scale(0.100000,-0.100000)"
fill="#000000" stroke="none">
<path d="M1247 2214 c-1 -1 -29 -5 -62 -8 -79 -7 -94 -11 -146 -35 -56 -25
-103 -70 -131 -124 -33 -62 -30 -164 6 -235 32 -62 27 -95 -15 -114 -34 -15
-48 -50 -55 -140 -6 -82 -6 -296 0 -375 6 -69 32 -182 48 -200 6 -7 8 -13 4
-13 -3 0 8 -23 24 -50 17 -28 30 -53 30 -55 0 -8 33 -46 70 -80 68 -64 95 -86
133 -102 20 -9 37 -20 37 -25 0 -4 3 -7 8 -6 12 4 86 -24 103 -38 12 -11 18
-11 27 -2 7 7 12 8 12 2 0 -12 140 -12 159 0 10 7 12 6 6 -3 -6 -10 -3 -11 13
-2 15 8 23 8 28 0 5 -8 8 -8 13 0 4 6 18 13 30 16 33 6 160 70 195 97 39 31
126 120 126 129 0 4 6 14 13 21 40 40 91 183 104 293 8 69 9 358 1 405 -4 25
-10 58 -13 75 -2 16 -9 31 -15 33 -6 2 -17 10 -24 18 -8 8 -19 14 -25 14 -21
0 -16 56 9 100 21 37 25 58 25 120 0 110 -48 191 -141 238 -37 19 -52 23 -134
38 -31 6 -457 13 -463 8z"/>
<path d="M1017 619 c7 -7 15 -10 18 -7 3 3 -2 9 -12 12 -14 6 -15 5 -6 -5z"/>
<path d="M1050 626 c0 -2 7 -7 16 -10 8 -3 12 -2 9 4 -6 10 -25 14 -25 6z"/>
<path d="M1090 621 c0 -6 4 -13 10 -16 6 -3 7 1 4 9 -7 18 -14 21 -14 7z"/>
<path d="M1139 612 c-13 -15 -12 -16 3 -4 13 10 17 10 21 0 4 -9 6 -9 6 -1 2
20 -16 24 -30 5z"/>
<path d="M1190 620 c-9 -6 -10 -10 -3 -10 6 0 15 5 18 10 8 12 4 12 -15 0z"/>
<path d="M1225 619 c-4 -6 -5 -12 -2 -15 2 -3 7 2 10 11 7 17 1 20 -8 4z"/>
<path d="M1250 617 c0 -7 9 -13 20 -13 11 0 20 1 20 3 0 1 -9 7 -20 13 -15 8
-20 8 -20 -3z"/>
<path d="M1653 617 c-3 -4 -2 -11 1 -14 3 -4 6 -1 6 6 0 8 5 9 18 2 13 -7 19
-6 19 2 0 14 -36 17 -44 4z"/>
<path d="M1715 620 c-8 -13 9 -20 24 -11 10 6 9 10 -3 14 -8 3 -18 2 -21 -3z"/>
<path d="M1810 626 c0 -2 7 -7 16 -10 8 -3 12 -2 9 4 -6 10 -25 14 -25 6z"/>
<path d="M1895 619 c-4 -6 -5 -12 -2 -15 2 -3 7 2 10 11 7 17 1 20 -8 4z"/>
<path d="M1615 610 c4 -6 11 -8 16 -5 14 9 11 15 -7 15 -8 0 -12 -5 -9 -10z"/>
</g>
</svg>
